<svg xmlns="http://www.w3.org/2000/svg" xmlns:xlink="http://www.w3.org/1999/xlink" width="443" zoomAndPan="magnify" viewBox="0 0 332.25 104.999996" height="140" preserveAspectRatio="xMidYMid meet" version="1.0"><defs><g/><clipPath id="5848369fa8"><path d="M 0 0.117188 L 331.5 0.117188 L 331.5 104.878906 L 0 104.878906 Z M 0 0.117188 " clip-rule="nonzero"/></clipPath><clipPath id="9810d50916"><path d="M 0 0.117188 L 101.023438 0.117188 L 101.023438 101.140625 L 0 101.140625 Z M 0 0.117188 " clip-rule="nonzero"/></clipPath><clipPath id="1969168b96"><path d="M 50 50 L 101.023438 50 L 101.023438 101.140625 L 50 101.140625 Z M 50 50 " clip-rule="nonzero"/></clipPath><clipPath id="d45951531e"><path d="M 0 0.117188 L 101.023438 0.117188 L 101.023438 101.140625 L 0 101.140625 Z M 0 0.117188 " clip-rule="nonzero"/></clipPath></defs><g clip-path="url(#5848369fa8)"><path fill="#ffffff" d="M 0 0.117188 L 331.5 0.117188 L 331.5 104.882812 L 0 104.882812 Z M 0 0.117188 " fill-opacity="1" fill-rule="nonzero"/></g><g clip-path="url(#9810d50916)"><path fill="#0e82fd" d="M 76.019531 0.117188 C 62.023438 0.117188 50.679688 11.460938 50.679688 25.457031 L 50.679688 50.796875 L 50.683594 50.796875 L 25.339844 50.796875 C 11.34375 50.796875 0 62.144531 0 76.136719 C 0 90.132812 11.34375 101.476562 25.339844 101.476562 L 50.679688 101.476562 L 50.679688 101.480469 L 101.359375 101.480469 L 101.359375 25.457031 C 101.359375 11.460938 90.015625 0.117188 76.019531 0.117188 Z M 76.019531 0.117188 " fill-opacity="1" fill-rule="nonzero"/></g><g clip-path="url(#1969168b96)"><path fill="#1f2b5b" d="M 50.679688 50.796875 L 101.359375 50.796875 L 101.359375 101.480469 L 50.679688 101.480469 Z M 50.679688 50.796875 " fill-opacity="1" fill-rule="nonzero"/></g><g clip-path="url(#d45951531e)"><path fill="#0e82fd" d="M 101.359375 25.457031 L 101.359375 50.796875 L 50.679688 50.796875 L 50.679688 25.457031 C 50.679688 11.460938 62.023438 0.117188 76.019531 0.117188 C 90.015625 0.117188 101.359375 11.460938 101.359375 25.457031 Z M 0 76.136719 C 0 90.132812 11.34375 101.476562 25.339844 101.476562 L 50.679688 101.476562 L 50.679688 50.796875 L 25.339844 50.796875 C 11.34375 50.796875 0 62.144531 0 76.136719 Z M 91.113281 71.011719 L 81.148438 71.011719 L 81.148438 61.046875 L 70.894531 61.046875 L 70.894531 71.011719 L 60.929688 71.011719 L 60.929688 81.265625 L 70.894531 81.265625 L 70.894531 91.226562 L 81.144531 91.226562 L 81.144531 81.265625 L 91.109375 81.265625 L 91.109375 71.011719 Z M 91.113281 71.011719 " fill-opacity="1" fill-rule="nonzero"/></g><g fill="#0e82fd" fill-opacity="1"><g transform="translate(111.270707, 62.284803)"><g><path d="M 17.515625 -28.953125 C 21.117188 -28.523438 24.015625 -27.144531 26.203125 -24.8125 C 28.398438 -22.476562 29.5 -19.1875 29.5 -14.9375 C 29.5 -10.664062 28.375 -7.238281 26.125 -4.65625 C 23.875 -2.082031 20.976562 -0.585938 17.4375 -0.171875 C 16.445312 -0.0546875 15.207031 0 13.71875 0 L 3.75 0 L 3.75 -29.125 L 13.796875 -29.125 C 15.285156 -29.125 16.523438 -29.066406 17.515625 -28.953125 Z M 16.125 -4.734375 C 18.34375 -5.015625 20.097656 -6.039062 21.390625 -7.8125 C 22.691406 -9.582031 23.34375 -11.929688 23.34375 -14.859375 C 23.34375 -17.671875 22.707031 -19.890625 21.4375 -21.515625 C 20.175781 -23.148438 18.445312 -24.109375 16.25 -24.390625 C 15.375 -24.503906 14.332031 -24.5625 13.125 -24.5625 L 9.578125 -24.5625 L 9.578125 -4.59375 L 13.046875 -4.59375 C 14.472656 -4.59375 15.5 -4.640625 16.125 -4.734375 Z M 16.125 -4.734375 "/></g></g></g><g fill="#0e82fd" fill-opacity="1"><g transform="translate(142.108702, 62.284803)"><g><path d="M 16.546875 -29.71875 C 20.992188 -29.71875 24.503906 -28.34375 27.078125 -25.59375 C 29.648438 -22.851562 30.9375 -19.175781 30.9375 -14.5625 C 30.9375 -9.976562 29.648438 -6.304688 27.078125 -3.546875 C 24.503906 -0.785156 20.992188 0.59375 16.546875 0.59375 C 12.097656 0.59375 8.585938 -0.785156 6.015625 -3.546875 C 3.441406 -6.304688 2.15625 -9.976562 2.15625 -14.5625 C 2.15625 -19.175781 3.429688 -22.851562 5.984375 -25.59375 C 8.546875 -28.34375 12.066406 -29.71875 16.546875 -29.71875 Z M 10.4375 -6.59375 C 11.914062 -4.695312 13.945312 -3.75 16.53125 -3.75 C 19.125 -3.75 21.148438 -4.707031 22.609375 -6.625 C 24.078125 -8.539062 24.8125 -11.1875 24.8125 -14.5625 C 24.8125 -17.96875 24.078125 -20.617188 22.609375 -22.515625 C 21.148438 -24.410156 19.128906 -25.359375 16.546875 -25.359375 C 13.929688 -25.359375 11.890625 -24.410156 10.421875 -22.515625 C 8.960938 -20.617188 8.234375 -17.96875 8.234375 -14.5625 C 8.234375 -11.15625 8.96875 -8.5 10.4375 -6.59375 Z M 10.4375 -6.59375 "/></g></g></g><g fill="#0e82fd" fill-opacity="1"><g transform="translate(174.38102, 62.284803)"><g><path d="M 16.25 -29.71875 C 20.050781 -29.71875 23.019531 -28.796875 25.15625 -26.953125 C 27.289062 -25.109375 28.515625 -22.679688 28.828125 -19.671875 L 28.859375 -19.25 L 23.046875 -19.25 L 22.953125 -19.671875 C 22.191406 -23.460938 19.925781 -25.359375 16.15625 -25.359375 C 13.800781 -25.359375 11.90625 -24.410156 10.46875 -22.515625 C 9.03125 -20.617188 8.3125 -18.023438 8.3125 -14.734375 C 8.3125 -11.210938 9.03125 -8.5 10.46875 -6.59375 C 11.90625 -4.695312 13.773438 -3.75 16.078125 -3.75 C 17.929688 -3.75 19.421875 -4.269531 20.546875 -5.3125 C 21.671875 -6.351562 22.429688 -7.804688 22.828125 -9.671875 L 22.921875 -10.09375 L 28.703125 -10.09375 L 28.65625 -9.671875 C 28.34375 -6.515625 27.046875 -4.015625 24.765625 -2.171875 C 22.492188 -0.328125 19.515625 0.59375 15.828125 0.59375 C 11.722656 0.59375 8.414062 -0.753906 5.90625 -3.453125 C 3.40625 -6.160156 2.15625 -9.804688 2.15625 -14.390625 C 2.15625 -19.054688 3.476562 -22.773438 6.125 -25.546875 C 8.769531 -28.328125 12.144531 -29.71875 16.25 -29.71875 Z M 16.25 -29.71875 "/></g></g></g><g fill="#0e82fd" fill-opacity="1"><g transform="translate(204.670593, 62.284803)"><g><path d="M 26.546875 -24.5625 L 16.671875 -24.5625 L 16.671875 0 L 10.84375 0 L 10.84375 -24.5625 L 0.96875 -24.5625 L 0.96875 -29.125 L 26.546875 -29.125 Z M 26.546875 -24.5625 "/></g></g></g><g fill="#0e82fd" fill-opacity="1"><g transform="translate(230.952497, 62.284803)"><g><path d="M 16.546875 -29.71875 C 20.992188 -29.71875 24.503906 -28.34375 27.078125 -25.59375 C 29.648438 -22.851562 30.9375 -19.175781 30.9375 -14.5625 C 30.9375 -9.976562 29.648438 -6.304688 27.078125 -3.546875 C 24.503906 -0.785156 20.992188 0.59375 16.546875 0.59375 C 12.097656 0.59375 8.585938 -0.785156 6.015625 -3.546875 C 3.441406 -6.304688 2.15625 -9.976562 2.15625 -14.5625 C 2.15625 -19.175781 3.429688 -22.851562 5.984375 -25.59375 C 8.546875 -28.34375 12.066406 -29.71875 16.546875 -29.71875 Z M 10.4375 -6.59375 C 11.914062 -4.695312 13.945312 -3.75 16.53125 -3.75 C 19.125 -3.75 21.148438 -4.707031 22.609375 -6.625 C 24.078125 -8.539062 24.8125 -11.1875 24.8125 -14.5625 C 24.8125 -17.96875 24.078125 -20.617188 22.609375 -22.515625 C 21.148438 -24.410156 19.128906 -25.359375 16.546875 -25.359375 C 13.929688 -25.359375 11.890625 -24.410156 10.421875 -22.515625 C 8.960938 -20.617188 8.234375 -17.96875 8.234375 -14.5625 C 8.234375 -11.15625 8.96875 -8.5 10.4375 -6.59375 Z M 10.4375 -6.59375 "/></g></g></g><g fill="#0e82fd" fill-opacity="1"><g transform="translate(263.224816, 62.284803)"><g><path d="M 24.859375 -7.34375 C 25.222656 -3.882812 25.925781 -1.4375 26.96875 0 L 20.59375 0 C 19.894531 -1.9375 19.414062 -4.101562 19.15625 -6.5 C 18.757812 -9.789062 17.453125 -11.519531 15.234375 -11.6875 C 14.703125 -11.71875 13.941406 -11.734375 12.953125 -11.734375 L 9.578125 -11.734375 L 9.578125 0 L 3.75 0 L 3.75 -29.125 L 14.390625 -29.125 C 15.992188 -29.125 17.398438 -29.050781 18.609375 -28.90625 C 20.921875 -28.625 22.769531 -27.859375 24.15625 -26.609375 C 25.550781 -25.359375 26.25 -23.550781 26.25 -21.1875 C 26.25 -19.351562 25.742188 -17.835938 24.734375 -16.640625 C 23.722656 -15.453125 22.328125 -14.601562 20.546875 -14.09375 C 23.054688 -13.132812 24.492188 -10.882812 24.859375 -7.34375 Z M 9.578125 -16.078125 L 13.59375 -16.078125 C 14.738281 -16.078125 15.523438 -16.09375 15.953125 -16.125 C 18.734375 -16.375 20.125 -17.765625 20.125 -20.296875 C 20.125 -21.617188 19.789062 -22.597656 19.125 -23.234375 C 18.46875 -23.867188 17.523438 -24.269531 16.296875 -24.4375 C 15.617188 -24.519531 14.800781 -24.5625 13.84375 -24.5625 L 9.578125 -24.5625 Z M 9.578125 -16.078125 "/></g></g></g><g fill="#000000" fill-opacity="1"><g transform="translate(111.270707, 91.653442)"><g><path d="M 4.640625 -15.453125 L 4.640625 -9.46875 L 12.6875 -9.46875 L 12.6875 -7.71875 L 4.640625 -7.71875 L 4.640625 0 L 2.5 0 L 2.5 -17.203125 L 13.6875 -17.203125 L 13.6875 -15.453125 Z M 4.640625 -15.453125 "/></g></g></g><g fill="#000000" fill-opacity="1"><g transform="translate(126.320561, 91.653442)"><g><path d="M 2.921875 -17.546875 C 3.296875 -17.546875 3.613281 -17.410156 3.875 -17.140625 C 4.144531 -16.878906 4.28125 -16.554688 4.28125 -16.171875 C 4.28125 -15.785156 4.144531 -15.457031 3.875 -15.1875 C 3.613281 -14.925781 3.296875 -14.796875 2.921875 -14.796875 C 2.535156 -14.796875 2.207031 -14.925781 1.9375 -15.1875 C 1.675781 -15.457031 1.546875 -15.785156 1.546875 -16.171875 C 1.546875 -16.554688 1.675781 -16.878906 1.9375 -17.140625 C 2.207031 -17.410156 2.535156 -17.546875 2.921875 -17.546875 Z M 3.984375 0 L 1.84375 0 L 1.84375 -13.203125 L 3.984375 -13.203125 Z M 3.984375 0 "/></g></g></g><g fill="#000000" fill-opacity="1"><g transform="translate(133.172919, 91.653442)"><g><path d="M 12.953125 -9.6875 C 12.992188 -9.363281 13.015625 -9.035156 13.015625 -8.703125 C 13.015625 -8.378906 13.015625 -7.953125 13.015625 -7.421875 L 13.015625 0 L 10.859375 0 L 10.859375 -7.28125 C 10.859375 -7.613281 10.859375 -7.925781 10.859375 -8.21875 C 10.859375 -8.519531 10.84375 -8.835938 10.8125 -9.171875 C 10.75 -9.953125 10.488281 -10.59375 10.03125 -11.09375 C 9.570312 -11.601562 8.828125 -11.859375 7.796875 -11.859375 C 7.117188 -11.859375 6.488281 -11.664062 5.90625 -11.28125 C 5.320312 -10.90625 4.851562 -10.273438 4.5 -9.390625 C 4.15625 -8.515625 3.984375 -7.320312 3.984375 -5.8125 L 3.984375 0 L 1.84375 0 L 1.84375 -13.203125 L 3.984375 -13.203125 L 3.984375 -10.9375 L 4.8125 -12.46875 C 5.375 -12.894531 5.921875 -13.179688 6.453125 -13.328125 C 6.984375 -13.484375 7.582031 -13.5625 8.25 -13.5625 C 9.695312 -13.5625 10.816406 -13.207031 11.609375 -12.5 C 12.410156 -11.789062 12.859375 -10.851562 12.953125 -9.6875 Z M 12.953125 -9.6875 "/></g></g></g><g fill="#000000" fill-opacity="1"><g transform="translate(148.870589, 91.653442)"><g><path d="M 13.390625 -18.3125 L 13.390625 0 L 11.234375 0 L 11.234375 -2.125 L 10.25 -0.703125 C 9.875 -0.378906 9.367188 -0.125 8.734375 0.0625 C 8.097656 0.25 7.4375 0.34375 6.75 0.34375 C 5.46875 0.34375 4.378906 0.0507812 3.484375 -0.53125 C 2.585938 -1.125 1.90625 -1.929688 1.4375 -2.953125 C 0.976562 -3.972656 0.75 -5.125 0.75 -6.40625 C 0.75 -8.03125 1.046875 -9.367188 1.640625 -10.421875 C 2.242188 -11.484375 3.035156 -12.269531 4.015625 -12.78125 C 5.003906 -13.300781 6.066406 -13.5625 7.203125 -13.5625 C 7.753906 -13.5625 8.335938 -13.484375 8.953125 -13.328125 C 9.566406 -13.179688 10.039062 -12.96875 10.375 -12.6875 L 11.234375 -11.390625 L 11.234375 -18.3125 Z M 7.078125 -1.296875 C 7.804688 -1.296875 8.484375 -1.460938 9.109375 -1.796875 C 9.742188 -2.140625 10.253906 -2.6875 10.640625 -3.4375 C 11.035156 -4.195312 11.234375 -5.210938 11.234375 -6.484375 L 11.234375 -7.203125 C 11.234375 -8.347656 11.03125 -9.265625 10.625 -9.953125 C 10.21875 -10.640625 9.703125 -11.132812 9.078125 -11.4375 C 8.460938 -11.75 7.835938 -11.90625 7.203125 -11.90625 C 6.035156 -11.90625 5.054688 -11.460938 4.265625 -10.578125 C 3.484375 -9.691406 3.09375 -8.382812 3.09375 -6.65625 C 3.09375 -5.65625 3.238281 -4.75 3.53125 -3.9375 C 3.832031 -3.132812 4.273438 -2.492188 4.859375 -2.015625 C 5.453125 -1.535156 6.191406 -1.296875 7.078125 -1.296875 Z M 7.078125 -1.296875 "/></g></g></g><g fill="#000000" fill-opacity="1"><g transform="translate(165.116421, 91.653442)"><g><path d="M 12.6875 -6.984375 C 12.6875 -6.878906 12.6875 -6.738281 12.6875 -6.5625 C 12.6875 -6.394531 12.671875 -6.191406 12.640625 -5.953125 L 3.0625 -5.953125 C 3.132812 -4.796875 3.347656 -3.875 3.703125 -3.1875 C 4.054688 -2.507812 4.503906 -2.023438 5.046875 -1.734375 C 5.597656 -1.441406 6.203125 -1.296875 6.859375 -1.296875 C 7.722656 -1.296875 8.46875 -1.550781 9.09375 -2.0625 C 9.726562 -2.582031 10.117188 -3.316406 10.265625 -4.265625 L 12.515625 -4.265625 C 12.347656 -3.203125 11.976562 -2.328125 11.40625 -1.640625 C 10.832031 -0.960938 10.140625 -0.460938 9.328125 -0.140625 C 8.523438 0.179688 7.664062 0.34375 6.75 0.34375 C 5.601562 0.34375 4.578125 0.09375 3.671875 -0.40625 C 2.765625 -0.914062 2.050781 -1.679688 1.53125 -2.703125 C 1.007812 -3.722656 0.75 -5.003906 0.75 -6.546875 C 0.75 -7.984375 1.019531 -9.222656 1.5625 -10.265625 C 2.113281 -11.316406 2.863281 -12.128906 3.8125 -12.703125 C 4.757812 -13.273438 5.832031 -13.5625 7.03125 -13.5625 C 8.238281 -13.5625 9.257812 -13.28125 10.09375 -12.71875 C 10.9375 -12.164062 11.578125 -11.394531 12.015625 -10.40625 C 12.460938 -9.414062 12.6875 -8.273438 12.6875 -6.984375 Z M 6.984375 -11.90625 C 5.929688 -11.90625 5.050781 -11.539062 4.34375 -10.8125 C 3.644531 -10.082031 3.226562 -9.007812 3.09375 -7.59375 L 10.515625 -7.59375 C 10.421875 -8.976562 10.078125 -10.039062 9.484375 -10.78125 C 8.890625 -11.53125 8.054688 -11.90625 6.984375 -11.90625 Z M 6.984375 -11.90625 "/></g></g></g><g fill="#000000" fill-opacity="1"><g transform="translate(179.717776, 91.653442)"><g><path d="M 7.03125 -13.5 C 7.394531 -13.5 7.691406 -13.441406 7.921875 -13.328125 L 7.921875 -11.71875 C 6.804688 -11.800781 5.867188 -11.5 5.109375 -10.8125 C 4.359375 -10.132812 3.984375 -9.039062 3.984375 -7.53125 L 3.984375 0 L 1.84375 0 L 1.84375 -13.203125 L 3.984375 -13.203125 L 3.984375 -11.140625 L 5.1875 -12.90625 C 5.769531 -13.300781 6.382812 -13.5 7.03125 -13.5 Z M 7.03125 -13.5 "/></g></g></g></svg>